HIERARCHY
ROOT ui
{
	 OFFSET 0 0 0
	 CHANNELS 3 XPosition YPosition Z Position
	 EndSite
	 {
	 OFFSET 0 -1 0
	 }
}
ROOT li
{
	 OFFSET 0 0 0
	 CHANNELS 3 XPosition YPosition Z Position
	 EndSite
	 {
	 OFFSET 0 -1 0
	 }
}
ROOT ul
{
	 OFFSET 0 0 0
	 CHANNELS 3 XPosition YPosition Z Position
	 EndSite
	 {
	 OFFSET 0 -1 0
	 }
}
ROOT ll
{
	 OFFSET 0 0 0
	 CHANNELS 3 XPosition YPosition Z Position
	 EndSite
	 {
	 OFFSET 0 -1 0
	 }
}
ROOT tt
{
	 OFFSET 0 0 0
	 CHANNELS 3 XPosition YPosition Z Position
	 EndSite
	 {
	 OFFSET 0 -1 0
	 }
}
ROOT tb
{
	 OFFSET 0 0 0
	 CHANNELS 3 XPosition YPosition Z Position
	 EndSite
	 {
	 OFFSET 0 -1 0
	 }
}
ROOT td
{
	 OFFSET 0 0 0
	 CHANNELS 3 XPosition YPosition Z Position
	 EndSite
	 {
	 OFFSET 0 -1 0
	 }
}
ROOT v
{
	 OFFSET 0 0 0
	 CHANNELS 3 XPosition YPosition Z Position
	 EndSite
	 {
	 OFFSET 0 -1 0
	 }
}
ROOT bn
{
	 OFFSET 0 0 0
	 CHANNELS 3 XPosition YPosition Z Position
	 EndSite
	 {
	 OFFSET 0 -1 0
	 }
}
MOTION
Frames: 19
Frame Time: 0.002
-0.01775069046020508	-0.0018539069890975953	0		0.5561949462890625	-2.3825556640625	0		-1.1120823974609375	0.05644826126098633	0		-0.37585427856445314	-2.686404541015625	0		1.8362828369140625	-0.3941098937988281	0		3.399228759765625	-0.561543701171875	0		4.6501201171875	-0.27186160278320315	0		5.9199755859375	0.2868443298339844	0		-0.4122815856933594	5.85380029296875	0		
0.01858696746826172	0.007429241180419922	0		0.6113234252929688	-2.383538818359375	0		-1.119673583984375	0.07134246063232422	0		-0.3777569274902344	-2.688611083984375	0		1.8123641357421876	-0.40309896850585936	0		3.363934326171875	-0.5224300537109375	0		4.65156982421875	-0.25327105712890624	0		5.9338798828125	0.3237157897949219	0		-0.2796065673828125	5.873837890625	0		
-0.01026249599456787	0.004593698024749756	0		0.5506122436523437	-2.368977294921875	0		-1.132351318359375	0.08133743286132812	0		-0.34878912353515623	-2.698193359375	0		1.8232860107421875	-0.4225243225097656	0		3.376127685546875	-0.52092724609375	0		4.65764208984375	-0.2617358703613281	0		5.93332666015625	0.3281759033203125	0		-0.4265982971191406	5.8445654296875	0		
0.01184878921508789	1.195250004529953E-4	0		0.597542724609375	-2.379803955078125	0		-1.0931856689453125	0.08068599700927734	0		-0.32087078857421875	-2.70873193359375	0		1.831327880859375	-0.4308905944824219	0		3.394546630859375	-0.5004929504394531	0		4.65371826171875	-0.2680631103515625	0		5.93465283203125	0.28759103393554686	0		-0.4413046875	5.8355966796875	0		
-0.017043277740478514	-0.0026504850387573243	0		0.597573974609375	-2.379985595703125	0		-1.101850830078125	0.09470287322998047	0		-0.32593417358398435	-2.714802978515625	0		1.8432529296875	-0.4462887268066406	0		3.377854248046875	-0.48658489990234377	0		4.65203564453125	-0.2544136199951172	0		5.9234462890625	0.30622711181640627	0		-0.4418672790527344	5.8364775390625	0		
0.009079689025878907	-0.0031152629852294923	0		0.6173305053710938	-2.39840234375	0		-1.1275587158203124	0.10698584747314453	0		-0.3958956298828125	-2.709976806640625	0		1.7811739501953125	-0.4596839904785156	0		3.37917919921875	-0.4699019775390625	0		4.65804052734375	-0.26286346435546876	0		5.9193486328125	0.32290121459960935	0		-0.4272961730957031	5.8461943359375	0		
-0.006678427219390869	0.007009954929351807	0		0.5615802612304688	-2.37678076171875	0		-1.1183524169921875	0.11384550476074219	0		-0.31310357666015626	-2.72214599609375	0		1.7930660400390626	-0.47403546142578123	0		3.3974169921875	-0.4584307861328125	0		4.654279296875	-0.2521748352050781	0		5.93091845703125	0.3373394775390625	0		-0.2774677429199219	5.87314306640625	0		
0.019410531997680665	0.006609922885894776	0		0.6114193115234375	-2.38453857421875	0		-1.131119140625	0.12403900146484376	0		-0.364103515625	-2.715494873046875	0		1.7900595703125	-0.47916259765625	0		3.3748955078125	-0.4273967590332031	0		4.65639404296875	-0.24955445861816405	0		5.92958349609375	0.34181991577148435	0		-0.41224017333984375	5.855919921875	0		
-0.009551444053649903	0.003982240915298462	0		0.5973847045898437	-2.380409912109375	0		-1.10894287109375	0.13080308532714843	0		-0.3353400573730469	-2.724876708984375	0		1.7758740234375	-0.49611367797851563	0		3.366847900390625	-0.4345392761230469	0		4.6564521484375	-0.24989413452148437	0		5.92598291015625	0.3256246337890625	0		-0.4127322998046875	5.8579443359375	0		
0.009411993026733399	-0.0032573750019073487	0		0.562421875	-2.36896435546875	0		-1.138762451171875	0.13930644226074218	0		-0.3755173645019531	-2.727293701171875	0		1.76572216796875	-0.5090910339355469	0		3.373010498046875	-0.4248522338867188	0		4.66647900390625	-0.2513549194335937	0		5.93087890625	0.3005155334472656	0		-0.42639028930664064	5.847181640625	0		
-0.012488451957702637	0.0010893349647521974	0		0.55607958984375	-2.383876220703125	0		-1.1336680908203125	0.1423736114501953	0		-0.32001547241210937	-2.751977294921875	0		1.7397015380859375	-0.5108240966796875	0		3.383224609375	-0.4102005615234375	0		4.65958544921875	-0.24557012939453124	0		5.9382314453125	0.33416903686523436	0		-0.2926245422363281	5.86644921875	0		
0.01557615852355957	0.0037843420505523683	0		0.5589852905273438	-2.3788837890625	0		-1.120467529296875	0.15436192321777345	0		-0.38911837768554686	-2.744929443359375	0		1.72545556640625	-0.5276903686523438	0		3.3776982421875	-0.375311279296875	0		4.67754931640625	-0.24910700988769532	0		5.9382470703125	0.33348745727539064	0		-0.41126043701171877	5.85818115234375	0		
0.015583989143371581	0.0038884360790252684	0		0.5919637451171875	-2.367279296875	0		-1.0843408203125	0.16206056213378905	0		-0.33535055541992187	-2.746536865234375	0		1.7433363037109375	-0.5339713134765625	0		3.3846748046875	-0.3755740966796875	0		4.68572900390625	-0.235489501953125	0		5.9345849609375	0.31566012573242186	0		-0.29165518188476564	5.8666787109375	0		
-0.01652350425720215	-0.002538662910461426	0		0.5965775146484374	-2.380265380859375	0		-1.1182828369140625	0.1667491912841797	0		-0.32980914306640624	-2.76246142578125	0		1.7249205322265626	-0.5597305297851562	0		3.413849609375	-0.3601217346191406	0		4.68261279296875	-0.24169680786132813	0		5.9345712890625	0.31504974365234373	0		-0.42544448852539063	5.84969140625	0		
-0.016562740325927736	-0.002386090040206909	0		0.5953184814453125	-2.382148193359375	0		-1.118308349609375	0.16699073791503907	0		-0.34701385498046877	-2.758046875	0		1.72178076171875	-0.5636763305664062	0		3.38091015625	-0.3507869873046875	0		4.6856376953125	-0.2359661407470703	0		5.9345400390625	0.31447836303710935	0		-0.29173123168945314	5.86902099609375	0		
-0.01662931251525879	-0.0022153940200805664	0		0.5560797119140625	-2.3804794921875	0		-1.09926513671875	0.17398231506347656	0		-0.3354418640136719	-2.76801708984375	0		1.730402099609375	-0.582768798828125	0		3.383885498046875	-0.34593017578125	0		4.685552734375	-0.2361709442138672	0		5.923177734375	0.3316341552734375	0		-0.4236384582519531	5.84806689453125	0		
0.024344047546386718	0.002392077922821045	0		0.6206530151367188	-2.39125390625	0		-1.086190673828125	0.1850687255859375	0		-0.3248794250488281	-2.776960205078125	0		1.734319580078125	-0.5787763061523438	0		3.407833740234375	-0.3413491516113281	0		4.6905673828125	-0.22742433166503906	0		5.93808544921875	0.3306363525390625	0		-0.27485122680664065	5.87719482421875	0		
-0.00669890022277832	0.008026716232299804	0		0.5506870727539063	-2.367113525390625	0		-1.0940943603515625	0.19946087646484376	0		-0.3401353759765625	-2.77152587890625	0		1.7390728759765626	-0.5847809448242187	0		3.40011669921875	-0.3113004150390625	0		4.6955458984375	-0.21965522766113282	0		5.93799853515625	0.3301929626464844	0		-0.4097771301269531	5.86032861328125	0		
0.009017780303955078	-0.001992601990699768	0		0.58835595703125	-2.368488037109375	0		-1.0942196044921875	0.19974810791015624	0		-0.34556295776367185	-2.777221923828125	0		1.7409613037109375	-0.5797300415039063	0		3.394926025390625	-0.3132706298828125	0		4.705375	-0.22093408203125	0		5.93422802734375	0.31262091064453124	0		-0.42362911987304686	5.8507666015625	0		
